<svg width="96" height="18" viewBox="0 0 96 18" fill="none" xmlns="http://www.w3.org/2000/svg">
<path d="M6.59547 18C4.62751 18 3.04995 17.3933 1.81499 16.1591C0.580033 14.925 0 13.429 0 11.6312C0 9.83343 0.605529 8.33902 1.81499 7.10485C3.02445 5.87068 4.62591 5.26398 6.59547 5.26398C8.56503 5.26398 10.1394 5.87068 11.376 7.10485C12.6125 8.33902 13.2132 9.83343 13.2132 11.6312C13.2132 13.429 12.6077 14.9234 11.376 16.1591C10.1442 17.3949 8.56184 18 6.59547 18ZM8.97296 11.6136C8.96668 11.1462 8.82272 10.6911 8.55916 10.3053C8.2956 9.9196 7.92418 9.62047 7.49154 9.4455C7.05889 9.27054 6.5843 9.22752 6.12734 9.32187C5.67039 9.41622 5.25143 9.64371 4.92306 9.9758C4.5947 10.3079 4.37157 10.7298 4.28168 11.1885C4.19179 11.6472 4.23915 12.1223 4.41781 12.5541C4.59647 12.9859 4.89847 13.3553 5.2859 13.6157C5.67333 13.8762 6.12892 14.0162 6.59547 14.0181C7.95631 14.0149 8.97296 12.9915 8.97296 11.6104V11.6136Z" fill="black"/>
<path d="M26.2879 7.10486C27.4336 8.29592 27.9961 9.79033 27.9961 11.6312C27.9961 13.4721 27.4336 14.984 26.2879 16.1799C25.1421 17.3757 23.759 17.9569 22.0508 17.9569C20.8757 17.9837 19.7338 17.5659 18.8526 16.7866V17.6536H14.7669V1.10486H18.9992V6.32572C19.86 5.6447 20.9303 5.28462 22.0269 5.30709C23.7383 5.30709 25.1644 5.9138 26.2879 7.10486ZM21.2508 9.18043C20.7659 9.17633 20.2908 9.31691 19.8859 9.58426C19.4811 9.85162 19.1647 10.2337 18.9773 10.6817C18.7898 11.1298 18.7397 11.6236 18.8333 12.1004C18.9269 12.5771 19.16 13.0151 19.5029 13.3586C19.8457 13.7022 20.2829 13.9357 20.7587 14.0295C21.2345 14.1232 21.7273 14.073 22.1746 13.8852C22.6218 13.6974 23.0031 13.3805 23.2699 12.9748C23.5367 12.5691 23.677 12.0931 23.6729 11.6073C23.6786 11.2872 23.6197 10.9692 23.5 10.6724C23.3802 10.3756 23.2019 10.106 22.9758 9.87979C22.7498 9.65357 22.4805 9.47532 22.1841 9.35571C21.8877 9.23609 21.5703 9.17757 21.2508 9.18362V9.18043Z" fill="black"/>
<path d="M38.5992 5.61042H42.5989V17.6535H38.5992V16.8089C37.6389 17.5659 36.4491 17.9709 35.2274 17.9569C33.5191 17.9569 32.1142 17.3502 31.0126 16.1368C29.9019 14.9074 29.3569 13.3858 29.3569 11.5881C29.3569 9.7903 29.9178 8.29589 31.0205 7.10483C32.1232 5.91378 33.5287 5.30707 35.2146 5.30707C36.534 5.30707 37.6574 5.69664 38.5864 6.49813L38.5992 5.61042ZM37.8024 13.3651C38.0317 13.1344 38.2129 12.8603 38.3354 12.5588C38.458 12.2573 38.5195 11.9344 38.5163 11.6088C38.5212 11.2897 38.4603 10.973 38.3374 10.6785C38.2146 10.384 38.0325 10.1181 37.8024 9.89728C37.5746 9.66431 37.3015 9.48064 37 9.35761C36.6985 9.23459 36.3751 9.17482 36.0496 9.18201C35.7298 9.17926 35.4126 9.24001 35.1163 9.36074C34.8201 9.48147 34.5506 9.6598 34.3235 9.88542C34.0964 10.111 33.9161 10.3795 33.7931 10.6753C33.6701 10.9711 33.6068 11.2884 33.6068 11.6088C33.6037 11.9342 33.6651 12.257 33.7873 12.5585C33.9096 12.8599 34.0903 13.1341 34.3191 13.3651C34.7832 13.8226 35.4081 14.079 36.0592 14.079C36.7102 14.079 37.3352 13.8226 37.7993 13.3651H37.8024Z" fill="black"/>
<path d="M54.5022 16.983C53.282 17.6508 51.9086 17.9871 50.5185 17.9585C47.4494 17.9585 45.9144 16.2687 45.9133 12.8893V9.12133H44.1477V5.60882H45.9627V1.33633H50.1791V5.60403H53.8107V9.11654H50.1791V12.2778C50.1791 13.4688 50.6571 14.0756 51.5846 14.0756C52.0817 14.0756 52.708 13.9031 53.4219 13.5774L54.5022 16.983Z" fill="black"/>
<path d="M61.7256 18C59.7592 18 58.18 17.3933 56.9451 16.1591C55.7101 14.925 55.1285 13.429 55.1285 11.6312C55.1285 9.83343 55.734 8.33902 56.9451 7.10485C58.1561 5.87068 59.756 5.26398 61.7256 5.26398C63.6951 5.26398 65.2711 5.87068 66.506 7.10485C67.741 8.33902 68.3433 9.83343 68.3433 11.6312C68.3433 13.429 67.7378 14.9234 66.506 16.1591C65.2743 17.3949 63.6935 18 61.7256 18ZM64.1031 11.6136C64.0968 11.1462 63.9528 10.6911 63.6893 10.3053C63.4257 9.9196 63.0543 9.62047 62.6216 9.4455C62.189 9.27054 61.7144 9.22752 61.2574 9.32187C60.8005 9.41622 60.3815 9.64371 60.0532 9.9758C59.7248 10.3079 59.5017 10.7298 59.4118 11.1885C59.3219 11.6472 59.3692 12.1223 59.5479 12.5541C59.7266 12.9859 60.0286 13.3553 60.416 13.6157C60.8034 13.8762 61.259 14.0162 61.7256 14.0181C63.088 14.0149 64.1031 12.9915 64.1031 11.6104V11.6136Z" fill="black"/>
<path d="M81.3941 7.10486C82.5398 8.29592 83.1023 9.79033 83.1023 11.6312C83.1023 13.4721 82.5398 14.984 81.3941 16.1799C80.2483 17.3757 78.8652 17.9569 77.1617 17.9569C75.9863 17.9837 74.8438 17.5658 73.962 16.7866V17.6535H69.8715V1.10486H74.1086V6.32572C74.9697 5.64529 76.0398 5.28528 77.1363 5.30709C78.8429 5.30709 80.2706 5.9138 81.3941 7.10486ZM76.357 9.18043C75.8721 9.17633 75.397 9.3169 74.9921 9.58426C74.5873 9.85162 74.271 10.2337 74.0835 10.6817C73.896 11.1298 73.8459 11.6236 73.9395 12.1003C74.0331 12.5771 74.2662 13.0151 74.6091 13.3586C74.9519 13.7022 75.3891 13.9357 75.8649 14.0295C76.3407 14.1232 76.8335 14.073 77.2808 13.8852C77.728 13.6974 78.1093 13.3805 78.3761 12.9748C78.6429 12.5691 78.7832 12.0931 78.7791 11.6072C78.7847 11.2878 78.7261 10.9706 78.6069 10.6743C78.4876 10.378 78.3101 10.1088 78.0848 9.8827C77.8596 9.65659 77.5913 9.47817 77.2958 9.35807C77.0004 9.23797 76.6838 9.17865 76.365 9.18362L76.357 9.18043Z" fill="black"/>
<path d="M88.9154 5.61041H84.6559V17.6535H88.9154V5.61041Z" fill="black"/>
<path d="M86.7848 4.76743C88.0988 4.76743 89.1639 3.7002 89.1639 2.38371C89.1639 1.06722 88.0988 0 86.7848 0C85.4709 0 84.4058 1.06722 84.4058 2.38371C84.4058 3.7002 85.4709 4.76743 86.7848 4.76743Z" fill="black"/>
<path d="M93.6209 17.6376C94.9348 17.6376 96 16.5703 96 15.2539C96 13.9374 94.9348 12.8701 93.6209 12.8701C92.307 12.8701 91.2418 13.9374 91.2418 15.2539C91.2418 16.5703 92.307 17.6376 93.6209 17.6376Z" fill="#00CCCC"/>
</svg>
